<svg xmlns="http://www.w3.org/2000/svg" width="1014" height="330" viewBox="0 0 1014 330">
  <g fill="none">
    <ellipse cx="135" cy="321" fill="#3F3D56" rx="135" ry="9"/>
    <ellipse cx="879" cy="321" fill="#3F3D56" rx="135" ry="9"/>
    <ellipse cx="507" cy="321" fill="#3F3D56" rx="135" ry="9"/>
    <circle cx="128" cy="212" r="79" fill="#2F2E41"/>
    <rect width="24" height="43" x="92" y="274" fill="#2F2E41"/>
    <rect width="24" height="43" x="140" y="274" fill="#2F2E41"/>
    <ellipse cx="112" cy="317.5" fill="#2F2E41" rx="20" ry="7.5"/>
    <ellipse cx="160" cy="316.5" fill="#2F2E41" rx="20" ry="7.5"/>
    <circle cx="130" cy="192" r="27" fill="#FFF"/>
    <circle cx="130" cy="192" r="9" fill="#3F3D56"/>
    <path fill="#3F3D56" d="M51.36733,138.53228 C44.98844,109.9647 65.37918,81.09836 96.91133,74.05751 C128.44348,67.01666 159.17643,84.46751 165.55533,113.03511 C171.93423,141.60271 151.03672,152.1389 119.50458,159.17975 C87.97244,166.2206 57.74622,167.09986 51.36733,138.53228 Z"/>
    <circle cx="507" cy="212" r="79" fill="#2F2E41"/>
    <rect width="24" height="43" x="471" y="274" fill="#2F2E41"/>
    <rect width="24" height="43" x="519" y="274" fill="#2F2E41"/>
    <ellipse cx="491" cy="317.5" fill="#2F2E41" rx="20" ry="7.5"/>
    <ellipse cx="539" cy="316.5" fill="#2F2E41" rx="20" ry="7.5"/>
    <circle cx="509" cy="192" r="27" fill="#FFF"/>
    <circle cx="509" cy="192" r="9" fill="#3F3D56"/>
    <path fill="#3F3D56" d="M430.36733,138.53228 C423.98844,109.9647 444.37918,81.09836 475.91133,74.05751 C507.44348,67.01666 510.62111,84.43242 517,113 C523.37889,141.56758 530.0367,152.1389 498.50456,159.17975 C466.97242,166.2206 436.74622,167.09986 430.36733,138.53228 Z"/>
    <circle cx="879" cy="212" r="79" fill="#2F2E41"/>
    <rect width="24" height="43" x="843" y="274" fill="#2F2E41"/>
    <rect width="24" height="43" x="891" y="274" fill="#2F2E41"/>
    <ellipse cx="863" cy="317.5" fill="#2F2E41" rx="20" ry="7.5"/>
    <ellipse cx="911" cy="316.5" fill="#2F2E41" rx="20" ry="7.5"/>
    <circle cx="881" cy="192" r="27" fill="#FFF"/>
    <circle cx="881" cy="192" r="9" fill="#3F3D56"/>
    <path fill="#0037FF" d="M802.36733 138.53228C795.98844 109.9647 816.37918 81.09836 847.91133 74.05751 879.44348 67.01666 910.17643 84.46751 916.55533 113.03511 922.93423 141.60271 902.03672 152.1389 870.50458 159.17975 838.97244 166.2206 808.74622 167.09986 802.36733 138.53228zM544.5553 113.0351C538.18304 84.49731 507.50745 67.0553 476.00977 74.03784L497.98277 159.29315C498.1569 159.25464 498.33036 159.21863 498.50456 159.17975 530.03668 152.13892 550.9342 141.60266 544.5553 113.0351z"/>
    <path fill="#F2F2F2" d="M395,133.76553 C395,192.24646 360.234,212.66582 317.348,212.66582 C274.462,212.66582 239.696,192.24646 239.696,133.76553 C239.696,75.2846 317.348,0.88763 317.348,0.88763 C317.348,0.88763 395,75.2846 395,133.76553 Z"/>
    <polygon fill="#3F3D56" points="314.519 203.72 315.314 154.777 348.412 94.227 315.439 147.099 315.797 125.092 338.607 81.285 315.891 119.268 315.891 119.268 316.534 79.688 340.96 44.812 316.635 73.464 317.037 .888 314.512 96.966 314.72 93.002 289.886 54.99 314.322 100.611 312.008 144.815 311.939 143.642 283.309 103.639 311.852 147.787 311.563 153.315 311.511 153.398 311.535 153.852 305.664 266.003 313.507 266.003 314.449 208.075 342.921 164.035"/>
    <ellipse cx="309" cy="266" fill="#3F3D56" rx="27" ry="8"/>
    <path fill="#F2F2F2" d="M771,133.76553 C771,192.24646 736.234,212.66582 693.348,212.66582 C650.462,212.66582 615.696,192.24646 615.696,133.76553 C615.696,75.2846 693.348,0.88763 693.348,0.88763 C693.348,0.88763 771,75.2846 771,133.76553 Z"/>
    <polygon fill="#3F3D56" points="690.519 203.72 691.314 154.777 724.412 94.227 691.439 147.099 691.797 125.092 714.607 81.285 691.891 119.268 691.891 119.268 692.534 79.688 716.96 44.812 692.635 73.464 693.037 .888 690.512 96.966 690.72 93.002 665.886 54.99 690.322 100.611 688.008 144.815 687.939 143.642 659.309 103.639 687.852 147.787 687.563 153.315 687.511 153.398 687.535 153.852 681.664 266.003 689.507 266.003 690.449 208.075 718.921 164.035"/>
    <ellipse cx="686" cy="266" fill="#3F3D56" rx="27" ry="8"/>
  </g>
</svg>
